<svg width="297" height="191" viewBox="0 0 297 191" fill="none" xmlns="http://www.w3.org/2000/svg">
<path d="M5.1044 189.257C5.1044 189.653 5.01383 189.947 4.83276 190.14C4.65168 190.332 4.40273 190.434 4.08585 190.434C3.89345 190.434 3.72367 190.4 3.56522 190.321C3.40678 190.253 3.29363 190.151 3.2031 190.027C3.11256 189.902 3.06726 189.755 3.06726 189.585H2.50139C2.50139 189.857 2.56932 190.094 2.70513 190.298C2.84094 190.502 3.03333 190.66 3.271 190.773C3.50866 190.887 3.78028 190.943 4.08585 190.943C4.39141 190.943 4.67432 190.875 4.91199 190.751C5.14965 190.626 5.33075 190.434 5.46656 190.174C5.60237 189.925 5.67026 189.619 5.67026 189.246V185.104H5.1044V189.246V189.257Z" fill="#CCA95A"/>
<path d="M10.0501 185.115H9.48422V190.876H12.7776V190.366H10.0501V185.115Z" fill="#CCA95A"/>
<path d="M17.2812 185.848C17.5755 185.656 17.9037 185.565 18.2771 185.565C18.5601 185.565 18.8317 185.622 19.0694 185.735C19.307 185.859 19.5107 186.018 19.6805 186.21C19.8389 186.414 19.9521 186.652 19.9974 186.912H20.5632C20.4953 186.55 20.3595 186.222 20.1558 185.939C19.9521 185.656 19.6805 185.429 19.3636 185.271C19.0354 185.112 18.6732 185.033 18.2771 185.033C17.7905 185.033 17.3604 185.146 16.9756 185.395C16.5909 185.633 16.2966 185.984 16.0929 186.425C15.8779 186.867 15.776 187.387 15.776 187.987C15.776 188.587 15.8779 189.096 16.0929 189.549C16.3079 189.99 16.6022 190.341 16.9756 190.579C17.3491 190.816 17.7905 190.941 18.2771 190.941C18.6732 190.941 19.0354 190.862 19.3636 190.703C19.6918 190.545 19.9521 190.318 20.1558 190.035C20.3595 189.753 20.4953 189.424 20.5632 189.073H19.9974C19.9408 189.334 19.8389 189.56 19.6692 189.764C19.5107 189.968 19.307 190.126 19.058 190.239C18.8204 190.364 18.5488 190.409 18.2658 190.409C17.9037 190.409 17.5642 190.318 17.2699 190.126C16.9757 189.934 16.738 189.662 16.5682 189.3C16.3985 188.938 16.3079 188.496 16.3079 187.987C16.3079 187.478 16.3985 187.036 16.5682 186.674C16.738 186.312 16.9757 186.029 17.2699 185.848H17.2812Z" fill="#CCA95A"/>
<path d="M27.4669 185.115L24.7055 188.171H24.6489V185.115H24.083V190.876H24.6489V189.008L25.4072 188.16L27.5122 190.876H28.2026L25.758 187.764L28.2139 185.115H27.4669Z" fill="#CCA95A"/>
<path d="M38.8072 185.341C38.5242 185.183 38.1847 185.104 37.7773 185.104H35.8986V190.864H36.4645V188.691H37.7886C38.1847 188.691 38.5242 188.612 38.8072 188.453C39.0901 188.295 39.3051 188.08 39.4409 187.82C39.5881 187.548 39.656 187.242 39.656 186.903C39.656 186.563 39.5881 186.247 39.4409 185.986C39.3051 185.715 39.0901 185.511 38.8072 185.352V185.341ZM38.943 187.559C38.8411 187.752 38.694 187.91 38.5016 188.012C38.2979 188.125 38.0602 188.182 37.7547 188.182H36.4532V185.613H37.7433C38.0376 185.613 38.2866 185.669 38.4903 185.771C38.694 185.884 38.8411 186.032 38.943 186.224C39.0448 186.416 39.0901 186.643 39.0901 186.892C39.0901 187.141 39.0448 187.367 38.943 187.559Z" fill="#CCA95A"/>
<path d="M45.3595 186.621C45.1331 186.541 44.8841 186.496 44.6238 186.496C44.3296 186.496 44.0693 186.541 43.8316 186.632C43.594 186.722 43.4016 186.858 43.2544 187.028C43.1073 187.198 43.0168 187.39 42.9828 187.628H43.5487C43.6053 187.435 43.7185 187.277 43.9109 187.153C44.0919 187.039 44.3296 186.983 44.6012 186.983C44.8275 186.983 45.02 187.017 45.1784 187.096C45.3368 187.175 45.45 187.277 45.5405 187.413C45.6197 187.56 45.665 187.73 45.665 187.922V188.33L45.2576 188.352C44.8502 188.375 44.5899 188.397 44.4654 188.409C43.9788 188.443 43.5826 188.556 43.2997 188.76C43.0168 188.963 42.8697 189.269 42.8697 189.688C42.8697 189.959 42.9376 190.186 43.0621 190.389C43.1866 190.582 43.3563 190.74 43.5713 190.842C43.7864 190.944 44.024 191 44.2956 191C44.522 191 44.7257 190.966 44.9068 190.887C45.0878 190.808 45.235 190.717 45.3481 190.604C45.4613 190.491 45.5518 190.367 45.6198 190.231H45.6537V190.899H46.1856V187.979C46.1856 187.617 46.1064 187.322 45.948 187.107C45.7895 186.892 45.5971 186.734 45.3595 186.655V186.621ZM45.4953 189.857C45.3934 190.05 45.235 190.197 45.0426 190.31C44.8502 190.423 44.6238 190.48 44.3748 190.48C44.1938 190.48 44.024 190.446 43.8769 190.389C43.7298 190.321 43.6166 190.231 43.526 190.118C43.4468 189.993 43.4016 189.857 43.4016 189.688C43.4016 189.439 43.4921 189.246 43.6845 189.099C43.8769 188.963 44.1598 188.873 44.5333 188.85L44.986 188.816C45.3708 188.782 45.5745 188.771 45.6537 188.76V189.224C45.6537 189.461 45.5971 189.665 45.4953 189.857Z" fill="#CCA95A"/>
<path d="M50.8143 186.686C50.5993 186.822 50.4521 187.003 50.3616 187.218H50.3163V186.55H49.7957V190.862H50.339V188.089C50.339 187.886 50.3843 187.693 50.4861 187.535C50.588 187.376 50.7238 187.241 50.9048 187.139C51.0859 187.048 51.2783 187.003 51.4933 187.003C51.5612 187.003 51.6178 187.003 51.6857 187.003C51.7536 187.003 51.7876 187.014 51.8215 187.026V186.482C51.731 186.482 51.6405 186.482 51.5386 186.482C51.267 186.482 51.0293 186.55 50.8256 186.675L50.8143 186.686Z" fill="#CCA95A"/>
<path d="M56.3713 190.343C56.2808 190.297 56.2016 190.229 56.145 190.128C56.0884 190.026 56.0544 189.89 56.0544 189.72V187.015H56.9598V186.551H56.0544V185.521H55.5112V186.551H54.8661V187.015H55.5112V189.845C55.5112 190.071 55.5678 190.263 55.6697 190.433C55.7828 190.603 55.9186 190.727 56.0884 190.807C56.2581 190.886 56.4392 190.931 56.643 190.931C56.8014 190.931 56.9485 190.931 57.0504 190.897V190.388C56.9259 190.388 56.8127 190.388 56.6882 190.388C56.5637 190.388 56.4619 190.365 56.36 190.32L56.3713 190.343Z" fill="#CCA95A"/>
<path d="M63.0031 186.677C62.7881 186.553 62.5277 186.496 62.2335 186.496C61.9166 186.496 61.6563 186.564 61.4413 186.689C61.2263 186.813 61.0678 187.005 60.9547 187.232H60.9094V186.553H60.3888V190.865H60.932V188.182C60.932 187.945 60.9773 187.718 61.0791 187.549C61.181 187.368 61.3168 187.232 61.4866 187.13C61.6563 187.039 61.8601 186.983 62.0864 186.983C62.3127 186.983 62.4938 187.028 62.6523 187.119C62.8107 187.209 62.9352 187.345 63.0257 187.515C63.1163 187.684 63.1502 187.888 63.1502 188.114V190.876H63.6934V188.092C63.6934 187.752 63.6368 187.458 63.5124 187.22C63.3879 186.983 63.2181 186.802 63.0031 186.677Z" fill="#CCA95A"/>
<path d="M69.8958 186.722C69.6129 186.564 69.3187 186.496 68.9791 186.496C68.6057 186.496 68.2775 186.587 67.9945 186.779C67.7116 186.971 67.4852 187.243 67.3155 187.583C67.157 187.922 67.0778 188.307 67.0778 188.737C67.0778 189.167 67.157 189.563 67.3155 189.891C67.4739 190.231 67.7116 190.491 68.0058 190.672C68.3001 190.865 68.6509 190.944 69.047 190.944C69.33 190.944 69.5903 190.899 69.8279 190.808C70.0543 190.717 70.2466 190.582 70.4051 190.423C70.5635 190.265 70.6654 190.084 70.7333 189.88H70.1561C70.0995 189.982 70.0316 190.072 69.9298 190.163C69.8279 190.242 69.7034 190.321 69.5563 190.378C69.4092 190.435 69.2394 190.457 69.0583 190.457C68.7641 190.457 68.5151 190.389 68.3001 190.253C68.0851 190.118 67.9153 189.925 67.8021 189.676C67.6889 189.439 67.6437 189.167 67.6437 188.861H70.8239V188.601C70.8239 188.137 70.7446 187.741 70.5749 187.424C70.4051 187.107 70.1787 186.87 69.9071 186.711L69.8958 186.722ZM67.655 188.409C67.6663 188.182 67.7003 187.956 67.8021 187.752C67.9153 187.515 68.0737 187.322 68.2888 187.186C68.4925 187.051 68.7301 186.971 68.9904 186.971C69.2394 186.971 69.4658 187.039 69.6582 187.164C69.8506 187.288 70.009 187.458 70.1109 187.673C70.224 187.888 70.2693 188.137 70.2693 188.409H67.6437H67.655Z" fill="#CCA95A"/>
<path d="M75.2258 186.686C75.0108 186.822 74.8637 187.003 74.7731 187.218H74.7278V186.55H74.2073V190.862H74.7505V188.089C74.7505 187.886 74.7957 187.693 74.8976 187.535C74.9995 187.376 75.1353 187.241 75.3164 187.139C75.4974 187.048 75.6898 187.003 75.9049 187.003C75.9728 187.003 76.0293 187.003 76.0972 187.003C76.1651 187.003 76.1991 187.014 76.2331 187.026V186.482C76.1425 186.482 76.052 186.482 75.9501 186.482C75.6785 186.482 75.4409 186.55 75.2371 186.675L75.2258 186.686Z" fill="#CCA95A"/>
<path d="M82.1073 188.975C81.9263 188.783 81.6546 188.647 81.2812 188.556L80.6247 188.398C80.3644 188.33 80.1721 188.239 80.0363 188.126C79.9118 188.013 79.8439 187.877 79.8439 187.707C79.8439 187.56 79.8891 187.436 79.9684 187.323C80.0589 187.209 80.1721 187.13 80.3192 187.062C80.4663 186.994 80.6361 186.972 80.8285 186.972C81.0888 186.972 81.3038 187.028 81.4622 187.142C81.6207 187.255 81.7339 187.413 81.7791 187.628H82.311C82.2771 187.402 82.2092 187.209 82.0734 187.04C81.9489 186.87 81.7791 186.734 81.5641 186.644C81.3491 186.553 81.1114 186.508 80.8285 186.508C80.5342 186.508 80.2626 186.553 80.0363 186.666C79.8099 186.768 79.6288 186.915 79.493 187.108C79.3685 187.3 79.3006 187.504 79.3006 187.741C79.3006 188.024 79.3912 188.262 79.5836 188.454C79.776 188.647 80.0476 188.794 80.4097 188.884L81.0661 189.043C81.3151 189.099 81.5075 189.19 81.632 189.303C81.7565 189.416 81.8131 189.563 81.8131 189.733C81.8131 189.892 81.7678 190.016 81.6773 190.129C81.5867 190.243 81.4622 190.333 81.3038 190.401C81.1453 190.458 80.9529 190.491 80.7379 190.491C80.455 190.491 80.2173 190.435 80.0476 190.31C79.8778 190.186 79.7646 190.016 79.7194 189.779H79.1535C79.1875 190.028 79.278 190.243 79.4138 190.424C79.5496 190.605 79.7307 190.74 79.957 190.831C80.1834 190.922 80.4437 190.967 80.7492 190.967C81.0888 190.967 81.3717 190.922 81.6207 190.808C81.8696 190.695 82.0507 190.548 82.1752 190.356C82.2997 190.163 82.3676 189.948 82.3676 189.699C82.3676 189.405 82.2771 189.167 82.096 188.975H82.1073Z" fill="#CCA95A"/>
<path d="M14.2942 156.152H16.9198V166.722H14.2942V161.596H10.5708V166.145H2.04887C1.44905 166.145 0.951104 165.964 0.577633 165.625C0.181527 165.296 0.00043869 164.844 0.00043869 164.244V156.571H2.62606V159.943H7.94518V156.571H10.5708V160.588H14.2942V156.141V156.152ZM7.94518 165.127V160.95H2.62606V165.127H7.94518ZM5.22903 177.564C4.62921 177.564 4.15389 177.395 3.78042 177.044C3.38431 176.693 3.1806 176.24 3.1806 175.697V169.303H5.80622V171.974H13.8981V169.303H16.5011C16.5011 170.751 16.5011 172.132 16.5237 173.422V177.576H5.22903V177.564ZM13.8981 176.546V172.969H5.80622V176.546H13.8981Z" fill="#CCA95A"/>
<path d="M20.722 170.195V169.222H40.5839V170.195H31.8582V177.518H29.2553V170.195H20.7107H20.722ZM38.1167 156.705V165.567H25.2942C24.717 165.567 24.2417 165.419 23.8682 165.069C23.4721 164.774 23.2684 164.322 23.2684 163.722V156.705H38.1054H38.1167ZM35.4911 164.593V157.701H25.894V164.593H35.4911Z" fill="#CCA95A"/>
<path d="M58.6806 156.152H61.3062V166.722H58.6806V161.596H54.9572V166.145H46.4352C45.8354 166.145 45.3375 165.964 44.964 165.625C44.5679 165.296 44.3868 164.844 44.3868 164.244V156.571H47.0124V159.943H52.3316V156.571H54.9572V160.588H58.6806V156.141V156.152ZM52.3316 165.127V160.95H47.0124V165.127H52.3316ZM49.6154 177.564C49.0156 177.564 48.5403 177.395 48.1668 177.044C47.7707 176.693 47.567 176.24 47.567 175.697V169.303H50.1926V171.974H58.2845V169.303H60.8875C60.8875 170.751 60.8875 172.132 60.9101 173.422V177.576H49.6154V177.564ZM58.2845 176.546V172.969H50.1926V176.546H58.2845Z" fill="#CCA95A"/>
<path d="M71.605 156.299C72.3519 156.299 73.0762 156.447 73.8005 156.696C74.5022 156.99 75.102 157.363 75.6453 157.839C76.1659 158.337 76.5959 158.914 76.9241 159.559C77.2297 160.227 77.3768 160.962 77.3768 161.754C77.3768 162.547 77.2297 163.26 76.9241 163.882C76.5959 164.538 76.1772 165.104 75.6453 165.58C75.0907 166.078 74.4909 166.451 73.8005 166.711C73.0762 166.983 72.3519 167.108 71.605 167.108C70.858 167.108 70.1111 166.983 69.4094 166.711C68.7078 166.462 68.0853 166.078 67.5647 165.58C66.9875 165.104 66.5348 164.538 66.2406 163.882C65.8897 163.26 65.7426 162.558 65.7426 161.754C65.7426 161.007 65.8897 160.283 66.2406 159.581C66.5348 158.936 66.9875 158.337 67.5647 157.839C68.0853 157.363 68.7191 156.99 69.4094 156.696C70.1111 156.447 70.8354 156.299 71.605 156.299ZM71.605 157.273C71.0278 157.273 70.5525 157.42 70.1564 157.725C69.7263 158.02 69.4094 158.393 69.1605 158.846C68.8888 159.299 68.6851 159.774 68.5606 160.294C68.4135 160.849 68.3569 161.313 68.3569 161.766C68.3569 162.218 68.4022 162.694 68.5606 163.192C68.6851 163.712 68.8888 164.188 69.1605 164.64C69.4094 165.059 69.7376 165.41 70.1564 165.715C70.5525 166.01 71.0278 166.168 71.605 166.168C72.1822 166.168 72.6349 166.01 73.031 165.693C73.4271 165.387 73.7553 165.036 74.0269 164.618C74.2759 164.165 74.4796 163.69 74.6267 163.169C74.7512 162.671 74.8304 162.218 74.8304 161.766C74.8304 161.313 74.7512 160.815 74.6493 160.261C74.5022 159.763 74.2985 159.287 74.0495 158.835C73.7779 158.382 73.4497 158.008 73.0536 157.714C72.6575 157.409 72.1595 157.261 71.605 157.261V157.273ZM72.2727 170.367V176.546H83.8616V177.576H71.6955C71.0957 177.576 70.6204 177.406 70.2469 177.055C69.8508 176.705 69.6471 176.252 69.6471 175.709V170.39H72.2727V170.367ZM83.5221 156.152V171.838H80.9191V156.152H83.5221Z" fill="#CCA95A"/>
<path d="M108.149 157.181V158.766H102.818C102.818 160.441 102.863 162.184 102.977 163.983C103.056 165.816 103.339 167.571 103.837 169.279C104.289 170.988 104.98 172.539 105.953 173.92C106.847 175.346 108.149 176.443 109.857 177.258C109.529 177.507 109.292 177.666 109.167 177.824C109.009 177.982 108.805 178.152 108.511 178.311C107.651 178.186 106.836 177.824 106.066 177.213C105.251 176.647 104.516 175.911 103.871 175.097C103.18 174.282 102.569 173.388 102.037 172.403C101.471 171.43 101.019 170.445 100.77 169.438C100.487 170.456 100.079 171.43 99.5926 172.403C99.0268 173.388 98.4156 174.282 97.714 175.097C97.0236 175.911 96.288 176.647 95.4732 177.213C94.613 177.824 93.7982 178.186 92.9833 178.311L91.6818 177.247C93.3115 176.511 94.5791 175.459 95.5523 173.987C96.4464 172.607 97.1368 171.022 97.6347 169.223C98.0422 167.514 98.3251 165.715 98.4949 163.847C98.6193 162.059 98.6986 160.339 98.6986 158.754H93.2776V157.17H108.137L108.149 157.181ZM106.643 166.631V165.047H111.691V155.97H115.561V164.764C115.561 167.65 115.561 170.547 115.607 173.399V190.873H111.702V166.643H106.655L106.643 166.631ZM122.974 155.959V190.862H119.104L119.058 155.959H122.963H122.974Z" fill="#CCA95A"/>
<path d="M138.241 157.056C139.622 157.056 140.889 157.294 142.112 157.792C143.255 158.279 144.307 158.98 145.246 159.784C146.141 160.644 146.876 161.617 147.442 162.76C147.974 163.937 148.257 165.16 148.257 166.461C148.257 167.853 147.974 169.109 147.442 170.252C146.876 171.395 146.141 172.414 145.246 173.229C144.307 174.044 143.255 174.689 142.066 175.187C140.844 175.673 139.543 175.922 138.241 175.922C136.94 175.922 135.672 175.673 134.495 175.187C133.273 174.7 132.209 174.044 131.315 173.229C130.342 172.414 129.606 171.395 129.119 170.252C128.553 169.109 128.304 167.853 128.304 166.461C128.304 165.16 128.553 163.937 129.119 162.76C129.606 161.617 130.342 160.644 131.315 159.784C132.209 158.969 133.273 158.279 134.495 157.792C135.672 157.305 136.94 157.056 138.241 157.056ZM132.582 166.461C132.582 167.276 132.707 168.136 132.945 169.03C133.148 169.969 133.476 170.818 133.963 171.599C134.416 172.369 135.027 173.025 135.797 173.512C136.532 174.044 137.347 174.293 138.32 174.293C139.294 174.293 140.108 174.044 140.844 173.478C141.58 172.991 142.146 172.335 142.632 171.565C143.04 170.784 143.402 169.935 143.651 168.996C143.854 168.102 143.979 167.253 143.979 166.427C143.979 165.692 143.854 164.843 143.651 163.903C143.402 163.009 143.04 162.149 142.598 161.334C142.112 160.553 141.534 159.908 140.844 159.342C140.108 158.856 139.26 158.562 138.275 158.562C137.29 158.562 136.442 158.845 135.706 159.342C134.97 159.908 134.359 160.565 133.952 161.334C133.465 162.149 133.137 162.998 132.933 163.903C132.684 164.843 132.571 165.692 132.571 166.472L132.582 166.461ZM152.739 190.906V186.549C152.739 185.157 152.739 183.697 152.784 182.237V164.843C152.739 162.036 152.739 159.105 152.739 156.004H156.971V164.843C156.971 167.695 156.971 170.581 157.016 173.433V190.906H152.739Z" fill="#CCA95A"/>
<path d="M170.733 171.644C169.59 171.644 168.493 171.485 167.474 171.078C166.41 170.716 165.516 170.184 164.747 169.527C163.932 168.882 163.275 168.101 162.834 167.128C162.347 166.189 162.098 165.136 162.098 163.993C162.098 162.85 162.347 161.831 162.834 160.858C163.287 159.919 163.932 159.104 164.747 158.414C165.516 157.723 166.422 157.191 167.474 156.784C168.493 156.456 169.59 156.252 170.733 156.252C171.707 156.252 172.646 156.41 173.585 156.739C174.479 157.067 175.34 157.508 176.109 158.085C176.879 158.651 177.535 159.387 178.101 160.202C178.588 161.062 178.995 161.99 179.244 163.008H182.537V155.924H186.532V172.662H182.537V164.514H179.278C178.825 166.721 177.818 168.463 176.268 169.686C174.638 170.987 172.759 171.644 170.733 171.644ZM170.733 170.014C171.503 170.014 172.205 169.855 172.816 169.448C173.382 169.086 173.834 168.588 174.197 167.988C174.604 167.411 174.887 166.721 175.057 165.996C175.215 165.306 175.306 164.616 175.306 163.959C175.306 163.303 175.226 162.612 175.057 161.888C174.853 161.198 174.57 160.541 174.163 159.896C173.8 159.319 173.348 158.832 172.782 158.425C172.216 158.063 171.514 157.859 170.745 157.859C169.93 157.859 169.194 158.063 168.628 158.425C167.972 158.832 167.531 159.319 167.202 159.896C166.795 160.507 166.467 161.164 166.308 161.843C166.105 162.578 166.025 163.314 166.025 163.959C166.025 164.604 166.105 165.306 166.308 166.042C166.467 166.777 166.795 167.467 167.202 168.033C167.531 168.644 167.972 169.131 168.628 169.459C169.194 169.867 169.93 170.025 170.745 170.025L170.733 170.014ZM193.945 190.826H172.771C171.797 190.826 171.016 190.543 170.405 190.012C169.749 189.446 169.466 188.71 169.466 187.816V182.927H189.011V178.083H169.013V176.453H193.244V184.274H173.699V189.242H193.945V190.826ZM193.662 172.662H189.758V155.924H193.662V172.662Z" fill="#CCA95A"/>
<path d="M216.172 157.056C216.127 157.215 216.127 157.419 216.127 157.622V158.233C216.127 159.863 216.172 161.538 216.331 163.247C216.41 164.956 216.693 166.631 217.1 168.261C217.508 169.89 218.074 171.395 218.809 172.776C219.545 174.247 220.518 175.504 221.74 176.567L219.952 178.605C219.466 178.322 218.979 177.948 218.492 177.507C218.006 177.099 217.519 176.613 217.021 176.002C216.534 175.39 216.082 174.7 215.674 173.885C215.188 173.15 214.814 172.256 214.497 171.282C213.841 172.867 213.117 174.293 212.211 175.594C211.272 176.941 210.174 178.084 208.952 179.012C207.979 178.322 206.96 177.258 205.975 175.832C204.912 174.451 204.063 172.821 203.372 170.909C202.807 172.572 202.15 174.089 201.381 175.424C200.566 176.816 199.468 177.993 198.087 178.967L196.05 177.258C197.272 176.194 198.291 174.892 199.027 173.353C199.717 171.848 200.294 170.218 200.701 168.51C201.064 166.801 201.313 165.092 201.471 163.338C201.55 161.629 201.63 159.999 201.63 158.494V157.068H205.047V157.837C205.002 158.086 205.002 158.369 205.002 158.731C205.002 159.999 205.047 161.3 205.16 162.681C205.24 164.062 205.443 165.454 205.772 166.801C206.021 168.193 206.428 169.528 206.994 170.75C207.481 172.052 208.171 173.15 209.076 174.044C209.97 172.98 210.661 171.724 211.159 170.252C211.6 168.872 211.974 167.366 212.256 165.816C212.46 164.311 212.585 162.806 212.664 161.289C212.709 159.829 212.743 158.437 212.743 157.215V157.056H216.161H216.172ZM222.363 156.004H226.595V190.906H222.363V156.004Z" fill="#CCA95A"/>
<path d="M232.899 177.949C235.343 177.089 237.301 175.787 238.807 174.033C240.278 172.324 241.376 170.038 242.111 167.277H233.838V165.647H242.27C242.428 164.425 242.553 163.282 242.632 162.139C242.632 161.041 242.677 159.898 242.677 158.755H233.431V157.17H243.492C244.058 157.17 244.556 157.283 244.952 157.453C245.28 157.702 245.563 157.985 245.812 158.313C246.016 158.675 246.174 159.083 246.299 159.536C246.378 160.022 246.423 160.554 246.423 161.041C246.423 161.81 246.378 162.501 246.299 163.123C246.219 163.768 246.14 164.425 246.05 164.991L245.97 165.805H250.656V155.914H254.56V190.817H250.656V167.39H245.529C245.122 168.771 244.59 170.117 243.899 171.385C243.164 172.686 242.349 173.829 241.376 174.803C240.402 175.821 239.293 176.67 238.116 177.372C236.894 178.107 235.547 178.639 234.087 178.877L232.91 177.938L232.899 177.949ZM262.064 155.925V190.828H258.159V155.925H262.064Z" fill="#CCA95A"/>
<path d="M277.975 157.056C279.356 157.056 280.624 157.294 281.846 157.792C282.989 158.279 284.042 158.98 284.981 159.784C285.875 160.644 286.611 161.617 287.176 162.76C287.708 163.937 287.991 165.16 287.991 166.461C287.991 167.853 287.708 169.109 287.176 170.252C286.611 171.395 285.875 172.414 284.981 173.229C284.042 174.044 282.989 174.689 281.801 175.187C280.578 175.673 279.277 175.922 277.975 175.922C276.674 175.922 275.406 175.673 274.229 175.187C273.007 174.7 271.943 174.044 271.049 173.229C270.076 172.414 269.34 171.395 268.854 170.252C268.288 169.109 268.039 167.853 268.039 166.461C268.039 165.16 268.288 163.937 268.854 162.76C269.34 161.617 270.076 160.644 271.049 159.784C271.943 158.969 273.007 158.279 274.229 157.792C275.406 157.305 276.674 157.056 277.975 157.056ZM272.317 166.461C272.317 167.276 272.441 168.136 272.679 169.03C272.883 169.969 273.211 170.818 273.698 171.599C274.15 172.369 274.761 173.025 275.531 173.512C276.267 174.044 277.081 174.293 278.055 174.293C279.028 174.293 279.843 174.044 280.578 173.478C281.314 172.991 281.88 172.335 282.367 171.565C282.774 170.784 283.136 169.935 283.385 168.996C283.589 168.102 283.713 167.253 283.713 166.427C283.713 165.692 283.589 164.843 283.385 163.903C283.136 163.009 282.774 162.149 282.321 161.334C281.835 160.553 281.257 159.908 280.567 159.342C279.831 158.856 278.983 158.562 277.998 158.562C277.013 158.562 276.165 158.845 275.429 159.342C274.693 159.908 274.082 160.565 273.675 161.334C273.188 162.149 272.86 162.998 272.656 163.903C272.407 164.843 272.294 165.692 272.294 166.472L272.317 166.461ZM292.473 190.906V186.549C292.473 185.157 292.473 183.697 292.518 182.237V164.843C292.473 162.036 292.473 159.105 292.473 156.004H296.706V164.843C296.706 167.695 296.706 170.581 296.751 173.433V190.906H292.473Z" fill="#CCA95A"/>
<path d="M82.1756 131.926H88.6944H92.3498H145.055L82.1756 67.9375V131.926Z" fill="#CCA95A"/>
<path d="M214.09 0H151.302V75.7581H214.09V0Z" fill="#CCA95A"/>
<path d="M144.975 82.0958V0H82.1756V58.8953L144.975 122.804V82.0958Z" fill="#CCA95A"/>
<path d="M214.09 82.0918H151.302V131.922H214.09V82.0918Z" fill="#CCA95A"/>
</svg>
