<svg width="71" height="71" viewBox="0 0 71 71" fill="none" xmlns="http://www.w3.org/2000/svg">
<path d="M35.5 43.0589L9.04372 69.5152C8.05386 70.5051 6.79404 71 5.26426 71C3.73447 71 2.47465 70.5051 1.48479 69.5152C0.494928 68.5253 0 67.2655 0 65.7357C0 64.206 0.494928 62.9461 1.48479 61.9563L27.9411 35.5L1.48479 9.04372C0.494928 8.05386 0 6.79404 0 5.26426C0 3.73447 0.494928 2.47465 1.48479 1.48479C2.47465 0.494928 3.73447 0 5.26426 0C6.79404 0 8.05386 0.494928 9.04372 1.48479L35.5 27.9411L61.9563 1.48479C62.9461 0.494928 64.206 0 65.7357 0C67.2655 0 68.5253 0.494928 69.5152 1.48479C70.5051 2.47465 71 3.73447 71 5.26426C71 6.79404 70.5051 8.05386 69.5152 9.04372L43.0589 35.5L69.5152 61.9563C70.5051 62.9461 71 64.206 71 65.7357C71 67.2655 70.5051 68.5253 69.5152 69.5152C68.5253 70.5051 67.2655 71 65.7357 71C64.206 71 62.9461 70.5051 61.9563 69.5152L35.5 43.0589Z" fill="#CCA95A"/>
</svg>
