<svg width="241" height="37" viewBox="0 0 241 37" fill="none" xmlns="http://www.w3.org/2000/svg">
<path d="M52.2239 28.4355C52.2239 28.6871 52.165 28.8798 52.0526 29.0082C51.9349 29.1367 51.7743 29.2009 51.5709 29.2009C51.4478 29.2009 51.3354 29.1795 51.2337 29.1313C51.132 29.0885 51.0571 29.0243 50.9982 28.9386C50.9393 28.853 50.9125 28.7566 50.9125 28.6496H50.5486C50.5486 28.8262 50.5914 28.9815 50.6824 29.1099C50.768 29.2437 50.8911 29.3454 51.0464 29.4203C51.2016 29.4899 51.3782 29.5274 51.5709 29.5274C51.7636 29.5274 51.9509 29.4846 52.1062 29.4043C52.2614 29.3187 52.3791 29.1955 52.4648 29.035C52.5504 28.869 52.5932 28.671 52.5932 28.4355V25.7539H52.2239V28.4355Z" fill="#CCA95A"/>
<path d="M55.4248 25.7539H55.0608V29.4792H57.1911V29.1527H55.4248V25.7539Z" fill="#CCA95A"/>
<path d="M60.1082 26.2316C60.3009 26.1085 60.515 26.0496 60.7505 26.0496C60.9378 26.0496 61.1091 26.0871 61.2643 26.162C61.4195 26.2369 61.5533 26.344 61.655 26.4724C61.7567 26.6062 61.8263 26.7561 61.8638 26.9274H62.2278C62.1849 26.6919 62.0993 26.4831 61.9655 26.2958C61.8317 26.1138 61.6604 25.964 61.4516 25.8623C61.2429 25.7552 61.0074 25.707 60.7505 25.707C60.4347 25.707 60.1563 25.782 59.9101 25.9425C59.6639 26.0978 59.4712 26.3226 59.3374 26.6116C59.1983 26.9006 59.134 27.2378 59.134 27.6232C59.134 28.0086 59.2036 28.3404 59.3374 28.6348C59.4766 28.9239 59.6639 29.1487 59.9101 29.3039C60.1563 29.4591 60.4347 29.5394 60.7505 29.5394C61.0074 29.5394 61.2429 29.4859 61.4516 29.3842C61.6604 29.2771 61.8317 29.1326 61.9655 28.9506C62.0993 28.7633 62.1849 28.5545 62.2278 28.3244H61.8638C61.8317 28.4903 61.7621 28.6402 61.655 28.774C61.548 28.9078 61.4195 29.0095 61.2643 29.0844C61.1091 29.1594 60.9378 29.1968 60.7505 29.1968C60.515 29.1968 60.3009 29.138 60.1082 29.0148C59.9155 28.8917 59.7656 28.7151 59.6532 28.4796C59.5408 28.2441 59.4873 27.9604 59.4873 27.6286C59.4873 27.2967 59.5408 27.0184 59.6586 26.7775C59.771 26.542 59.9208 26.36 60.1135 26.2369L60.1082 26.2316Z" fill="#CCA95A"/>
<path d="M66.697 25.7539L64.9146 27.729H64.8771V25.7539H64.5132V29.4792H64.8771V28.2749L65.3696 27.7236L66.7291 29.4792H67.1734L65.5944 27.4721L67.1841 25.7539H66.697Z" fill="#CCA95A"/>
<path d="M74.0406 25.9038C73.8586 25.8021 73.6391 25.7539 73.3769 25.7539H72.1619V29.4792H72.5258V28.0715H73.3822C73.6445 28.0715 73.8639 28.0234 74.0459 27.9217C74.2279 27.82 74.3671 27.6808 74.4581 27.5095C74.5491 27.3329 74.5972 27.1348 74.5972 26.9154C74.5972 26.6959 74.5491 26.4925 74.4581 26.3213C74.3671 26.15 74.2279 26.0108 74.0459 25.9091L74.0406 25.9038ZM74.1316 27.3382C74.0673 27.4614 73.971 27.563 73.8425 27.6326C73.7141 27.7076 73.5535 27.7397 73.3608 27.7397H72.5205V26.0751H73.3555C73.5481 26.0751 73.7087 26.1125 73.8372 26.1821C73.971 26.2517 74.0673 26.348 74.1262 26.4711C74.1904 26.5942 74.2226 26.7388 74.2226 26.9047C74.2226 27.0706 74.1904 27.2098 74.1262 27.3329L74.1316 27.3382Z" fill="#CCA95A"/>
<path d="M78.2853 26.7287C78.1354 26.6752 77.9802 26.6484 77.8089 26.6484C77.6162 26.6484 77.445 26.6752 77.2951 26.7394C77.1399 26.7983 77.0168 26.8839 76.9204 26.991C76.8241 27.098 76.7652 27.2265 76.7438 27.3764H77.1078C77.1399 27.2479 77.2202 27.1462 77.3379 27.0713C77.461 26.9964 77.6109 26.9589 77.7875 26.9589C77.9321 26.9589 78.0551 26.9803 78.1568 27.0285C78.2585 27.0766 78.3335 27.1462 78.387 27.2319C78.4405 27.3228 78.4619 27.4353 78.4619 27.5584V27.8206L78.1943 27.8313C77.932 27.8474 77.7608 27.8581 77.6805 27.8688C77.3647 27.8902 77.1131 27.9651 76.9258 28.0936C76.7438 28.2221 76.6475 28.4201 76.6475 28.6984C76.6475 28.8697 76.6903 29.0196 76.7706 29.148C76.8508 29.2765 76.9632 29.3728 77.1024 29.4424C77.2416 29.5067 77.3968 29.5441 77.5681 29.5441C77.718 29.5441 77.8464 29.5174 77.9642 29.4692C78.0819 29.421 78.1783 29.3621 78.2532 29.2872C78.3281 29.2123 78.387 29.132 78.4298 29.0463H78.4512V29.4799H78.7991V27.5905C78.7991 27.355 78.7456 27.1623 78.6439 27.0231C78.5422 26.884 78.4138 26.7822 78.2639 26.7287H78.2853ZM78.3656 28.8269C78.296 28.95 78.1997 29.0463 78.0766 29.1213C77.9535 29.1962 77.8089 29.2283 77.643 29.2283C77.5253 29.2283 77.4129 29.2069 77.3165 29.1694C77.2202 29.1266 77.1452 29.0677 77.0917 28.9875C77.0382 28.9125 77.0114 28.8215 77.0114 28.7145C77.0114 28.5539 77.0703 28.4255 77.1934 28.3345C77.3165 28.2435 77.4985 28.1899 77.7394 28.1685L78.0337 28.1471C78.28 28.1257 78.4138 28.115 78.4673 28.1097V28.4094C78.4673 28.5593 78.4352 28.6931 78.3656 28.8215V28.8269Z" fill="#CCA95A"/>
<path d="M81.8124 26.771C81.6733 26.8567 81.5769 26.9744 81.5234 27.119H81.4966V26.6907H81.1594V29.4847H81.5073V27.6917C81.5073 27.5579 81.5394 27.4401 81.6037 27.3277C81.6679 27.2206 81.7589 27.135 81.8713 27.0761C81.9837 27.0172 82.1122 26.9851 82.2513 26.9851C82.2942 26.9851 82.3316 26.9851 82.3744 26.9905C82.4172 26.9958 82.444 27.0012 82.4601 27.0012V26.6479C82.4065 26.6479 82.3423 26.6426 82.2781 26.6426C82.1068 26.6426 81.9516 26.6854 81.8124 26.771Z" fill="#CCA95A"/>
<path d="M85.4092 29.1434C85.3503 29.1167 85.3022 29.0685 85.2647 29.0042C85.2272 28.94 85.2112 28.849 85.2112 28.742V26.9864H85.7999V26.6866H85.2112V26.0176H84.8579V26.6866H84.4404V26.9864H84.8579V28.8169C84.8579 28.9668 84.8954 29.0899 84.9596 29.1969C85.0292 29.304 85.1202 29.3843 85.2326 29.4378C85.345 29.4913 85.4627 29.5234 85.5858 29.5234C85.6929 29.5234 85.7785 29.5181 85.8535 29.502V29.1755C85.7732 29.1809 85.6983 29.1809 85.6233 29.1809C85.5484 29.1809 85.4735 29.1702 85.4146 29.1381L85.4092 29.1434Z" fill="#CCA95A"/>
<path d="M89.7019 26.7662C89.5627 26.6859 89.3968 26.6484 89.2041 26.6484C89.0007 26.6484 88.8294 26.6913 88.6956 26.7716C88.5565 26.8572 88.4548 26.9749 88.3798 27.1248H88.3531V26.6859H88.0159V29.4799H88.3638V27.7403C88.3638 27.5851 88.3959 27.4406 88.4601 27.3282C88.5243 27.2104 88.61 27.1195 88.7277 27.0552C88.8401 26.9964 88.9686 26.9642 89.1131 26.9642C89.2576 26.9642 89.3807 26.991 89.4824 27.0552C89.5841 27.1141 89.6644 27.1997 89.7233 27.3068C89.7768 27.4138 89.8089 27.5477 89.8089 27.6922V29.4745H90.1569V27.6708C90.1569 27.4513 90.1194 27.264 90.0391 27.1087C89.9588 26.9535 89.8518 26.8358 89.7072 26.7608L89.7019 26.7662Z" fill="#CCA95A"/>
<path d="M94.166 26.7983C93.984 26.6966 93.7914 26.6484 93.5773 26.6484C93.3364 26.6484 93.1223 26.7073 92.935 26.8304C92.7476 26.9535 92.6031 27.1302 92.496 27.3496C92.3943 27.5691 92.3408 27.8206 92.3408 28.099C92.3408 28.3773 92.3943 28.6288 92.496 28.8483C92.6031 29.0677 92.7476 29.2337 92.9457 29.3568C93.1383 29.4799 93.3631 29.5388 93.6201 29.5388C93.8074 29.5388 93.9733 29.512 94.1232 29.4478C94.2731 29.3889 94.3962 29.3033 94.4979 29.2016C94.5996 29.0945 94.6692 28.9821 94.712 28.8483H94.3373C94.3052 28.9179 94.2517 28.9768 94.1874 29.0303C94.1232 29.0838 94.0429 29.132 93.9466 29.1694C93.8502 29.2069 93.7432 29.223 93.6201 29.223C93.4327 29.223 93.2721 29.1802 93.1276 29.0892C92.9885 29.0035 92.8814 28.8751 92.8011 28.7145C92.7316 28.5646 92.6994 28.388 92.6941 28.1899H94.7548V28.024C94.7548 27.7243 94.7013 27.4674 94.5889 27.2586C94.4818 27.0499 94.3373 26.8946 94.1553 26.7929L94.166 26.7983ZM92.7101 27.8849C92.7208 27.735 92.7423 27.5905 92.8065 27.462C92.8814 27.3068 92.9831 27.189 93.1223 27.098C93.2561 27.0071 93.406 26.9589 93.5773 26.9589C93.7378 26.9589 93.8823 27.0017 94.0108 27.082C94.1393 27.1623 94.2356 27.2747 94.3052 27.4138C94.3748 27.553 94.4122 27.7136 94.4122 27.8902H92.7101V27.8849Z" fill="#CCA95A"/>
<path d="M97.6183 26.771C97.4792 26.8567 97.3828 26.9744 97.3293 27.119H97.3025V26.6907H96.9653V29.4847H97.3132V27.6917C97.3132 27.5579 97.3453 27.4401 97.4096 27.3277C97.4738 27.2206 97.5648 27.135 97.6772 27.0761C97.7896 27.0172 97.9181 26.9851 98.0572 26.9851C98.1001 26.9851 98.1375 26.9851 98.1803 26.9905C98.2232 26.9958 98.2499 27.0012 98.266 27.0012V26.6479C98.2125 26.6479 98.1482 26.6426 98.084 26.6426C97.9127 26.6426 97.7575 26.6854 97.6183 26.771Z" fill="#CCA95A"/>
<path d="M102.066 28.2488C101.948 28.1257 101.772 28.0347 101.531 27.9812L101.108 27.8742C100.937 27.8313 100.814 27.7725 100.728 27.6975C100.642 27.6226 100.605 27.5316 100.605 27.4246C100.605 27.3336 100.632 27.2533 100.685 27.1783C100.739 27.1034 100.814 27.0499 100.91 27.007C101.006 26.9642 101.113 26.9482 101.236 26.9482C101.402 26.9482 101.542 26.9856 101.643 27.0606C101.745 27.1355 101.814 27.2426 101.847 27.3764H102.195C102.173 27.2318 102.125 27.1034 102.039 26.9963C101.954 26.8893 101.847 26.7983 101.707 26.7394C101.568 26.6805 101.413 26.6484 101.231 26.6484C101.038 26.6484 100.867 26.6806 100.717 26.7501C100.567 26.8197 100.455 26.9161 100.369 27.0338C100.284 27.1569 100.241 27.2907 100.241 27.4459C100.241 27.6333 100.305 27.7832 100.423 27.9116C100.546 28.0401 100.723 28.1311 100.958 28.1846L101.386 28.2863C101.547 28.3238 101.67 28.3773 101.75 28.4576C101.831 28.5325 101.868 28.6289 101.868 28.7413C101.868 28.8429 101.841 28.9286 101.782 29.0035C101.724 29.0785 101.643 29.1373 101.536 29.1748C101.429 29.2123 101.306 29.2337 101.167 29.2337C100.98 29.2337 100.83 29.1962 100.723 29.1159C100.61 29.0356 100.541 28.9232 100.514 28.7734H100.145C100.166 28.9393 100.225 29.0731 100.31 29.1909C100.396 29.3086 100.514 29.3942 100.658 29.4531C100.803 29.512 100.974 29.5388 101.172 29.5388C101.392 29.5388 101.579 29.5066 101.734 29.4371C101.889 29.3675 102.013 29.2711 102.098 29.148C102.184 29.0249 102.221 28.8804 102.221 28.7252C102.221 28.5379 102.162 28.3773 102.045 28.2595L102.066 28.2488Z" fill="#CCA95A"/>
<path d="M58.1709 7.01172H59.8677V13.8522H58.1709V10.5336H55.7623V13.4775H50.2493C49.8639 13.4775 49.5374 13.3597 49.2966 13.1403C49.0396 12.9262 48.9272 12.6372 48.9272 12.2518V7.29004H50.624V9.47386H54.071V7.29004H55.7677V9.89135H58.1763V7.01172H58.1709ZM54.0656 12.8191V10.1161H50.6186V12.8191H54.0656ZM52.3046 20.8746C51.9139 20.8746 51.6088 20.7622 51.368 20.5374C51.111 20.3126 50.9826 20.0182 50.9826 19.6649V15.5221H52.6793V17.251H57.9194V15.5221H59.6001C59.6001 16.4588 59.6001 17.3527 59.6161 18.193V20.88H52.3046V20.8746ZM57.914 20.2109V17.8986H52.674V20.2109H57.914Z" fill="#CCA95A"/>
<path d="M62.3352 16.101V15.4694H75.1918V16.101H69.545V20.8432H67.8643V16.101H62.3352ZM73.5914 7.37109V13.1089H65.2951C64.9258 13.1089 64.6154 13.0126 64.3745 12.7878C64.1176 12.5951 63.9891 12.3061 63.9891 11.9153V7.37109H73.5968H73.5914ZM71.8894 12.4827V8.01874H65.6805V12.4827H71.8894Z" fill="#CCA95A"/>
<path d="M86.9034 7.01172H88.6001V13.8522H86.9034V10.5336H84.4948V13.4775H78.9817C78.5963 13.4775 78.2699 13.3597 78.029 13.1403C77.7721 12.9262 77.6597 12.6372 77.6597 12.2518V7.29004H79.3564V9.47386H82.8034V7.29004H84.5001V9.89135H86.9087V7.01172H86.9034ZM82.798 12.8191V10.1161H79.351V12.8191H82.798ZM81.0317 20.8746C80.641 20.8746 80.3359 20.7622 80.095 20.5374C79.8381 20.3126 79.7097 20.0182 79.7097 19.6649V15.5221H81.4064V17.251H86.6465V15.5221H88.3271C88.3271 16.4588 88.3271 17.3527 88.3432 18.193V20.88H81.0317V20.8746ZM86.6465 20.2109V17.8986H81.4064V20.2109H86.6465Z" fill="#CCA95A"/>
<path d="M95.269 7.10806C95.7561 7.10806 96.2217 7.20441 96.6927 7.36498C97.1477 7.55767 97.5331 7.79852 97.8917 8.10897C98.2289 8.43011 98.5072 8.8048 98.716 9.22229C98.9087 9.65584 99.005 10.1269 99.005 10.646C99.005 11.1652 98.9087 11.6148 98.716 12.0216C98.5072 12.4445 98.2289 12.8138 97.8917 13.1189C97.5384 13.44 97.1477 13.6862 96.6927 13.8522C96.2217 14.0288 95.7561 14.1091 95.269 14.1091C94.7819 14.1091 94.3002 14.0288 93.8452 13.8522C93.3903 13.6862 92.9888 13.4454 92.6463 13.1189C92.277 12.8138 91.9826 12.4445 91.7899 12.0216C91.5651 11.6202 91.4688 11.1652 91.4688 10.646C91.4688 10.1643 91.5651 9.6933 91.7899 9.23835C91.9826 8.82085 92.277 8.43011 92.6463 8.10897C92.9835 7.80388 93.3903 7.55767 93.8452 7.36498C94.3002 7.19906 94.7659 7.10806 95.269 7.10806ZM95.269 7.73965C94.8997 7.73965 94.5892 7.836 94.3323 8.03404C94.0593 8.22673 93.8452 8.46758 93.6847 8.76197C93.508 9.051 93.3796 9.36144 93.2939 9.69865C93.1976 10.0519 93.1655 10.357 93.1655 10.6514C93.1655 10.9458 93.1976 11.2509 93.2939 11.572C93.3742 11.9092 93.5027 12.2197 93.6847 12.5087C93.8452 12.7817 94.054 13.0065 94.3323 13.2045C94.5946 13.3972 94.8997 13.4989 95.269 13.4989C95.6383 13.4989 95.9327 13.3972 96.1896 13.1938C96.4465 12.9958 96.6606 12.771 96.8373 12.498C96.9978 12.209 97.1263 11.8985 97.2226 11.5613C97.3029 11.2402 97.3511 10.9458 97.3511 10.6567C97.3511 10.3677 97.3029 10.0466 97.2387 9.68795C97.1424 9.3668 97.0139 9.06171 96.8533 8.76733C96.6767 8.47829 96.4626 8.23209 96.2057 8.0394C95.9487 7.84136 95.6222 7.745 95.269 7.745V7.73965ZM95.7025 16.2126V20.2109H103.207V20.8746H95.3279C94.9425 20.8746 94.6321 20.7622 94.3912 20.5374C94.1343 20.3126 94.0058 20.0182 94.0058 19.6649V16.218H95.7025V16.2126ZM102.982 7.01172V17.1653H101.301V7.01172H102.982Z" fill="#CCA95A"/>
<path d="M118.926 7.68084V8.70852H115.474C115.474 9.78972 115.501 10.9244 115.581 12.0806C115.635 13.2688 115.817 14.3982 116.133 15.5115C116.422 16.6195 116.871 17.6204 117.503 18.5196C118.081 19.4402 118.926 20.1521 120.034 20.682C119.826 20.8426 119.665 20.9496 119.585 21.0513C119.478 21.1583 119.349 21.2654 119.162 21.3671C118.611 21.2868 118.081 21.0513 117.578 20.6552C117.053 20.2859 116.577 19.8149 116.154 19.285C115.704 18.7604 115.308 18.177 114.966 17.5454C114.596 16.9138 114.307 16.2822 114.147 15.6239C113.965 16.2822 113.697 16.9138 113.381 17.5454C113.012 18.1824 112.616 18.7604 112.166 19.285C111.717 19.8149 111.246 20.2859 110.716 20.6552C110.165 21.0513 109.635 21.2868 109.105 21.3671L108.259 20.682C109.313 20.2056 110.132 19.5205 110.764 18.5731C111.342 17.6739 111.792 16.6516 112.107 15.4901C112.37 14.3821 112.557 13.2206 112.659 12.011C112.739 10.8495 112.793 9.74154 112.793 8.71386H109.287V7.6862H118.91L118.926 7.68084ZM117.952 13.7934V12.7657H121.223V6.88867H123.728V12.5837C123.728 14.4571 123.728 16.3251 123.754 18.1717V29.4814H121.223V13.7934H117.952ZM128.523 6.88867V29.4814H126.019L125.992 6.88867H128.523Z" fill="#CCA95A"/>
<path d="M138.404 7.60113C139.298 7.60113 140.117 7.75634 140.909 8.07749C141.648 8.39329 142.333 8.84289 142.938 9.36744C143.516 9.92409 143.992 10.5557 144.361 11.2943C144.704 12.0544 144.886 12.8465 144.886 13.6922C144.886 14.5914 144.704 15.405 144.361 16.1437C143.992 16.8823 143.516 17.5407 142.938 18.0705C142.333 18.5951 141.648 19.0179 140.882 19.3391C140.09 19.6549 139.25 19.8155 138.404 19.8155C137.558 19.8155 136.745 19.6549 135.979 19.3391C135.187 19.0233 134.502 18.6004 133.924 18.0705C133.293 17.5407 132.816 16.8823 132.5 16.1437C132.131 15.405 131.97 14.5914 131.97 13.6922C131.97 12.8519 132.131 12.0597 132.5 11.2943C132.816 10.5557 133.293 9.92409 133.924 9.36744C134.502 8.84289 135.193 8.39329 135.979 8.07749C136.745 7.7617 137.564 7.60113 138.404 7.60113ZM134.738 13.6869C134.738 14.2168 134.818 14.7681 134.973 15.3515C135.107 15.9563 135.316 16.5076 135.632 17.0108C135.921 17.5085 136.317 17.9314 136.82 18.2472C137.296 18.5897 137.821 18.7503 138.452 18.7503C139.084 18.7503 139.614 18.5897 140.09 18.2204C140.567 17.9046 140.936 17.4818 141.252 16.984C141.514 16.4809 141.755 15.9242 141.91 15.3194C142.044 14.7413 142.119 14.19 142.119 13.6601C142.119 13.1838 142.038 12.6324 141.91 12.0276C141.755 11.4495 141.514 10.8929 141.225 10.3683C140.909 9.86521 140.54 9.44772 140.09 9.0784C139.614 8.7626 139.062 8.57528 138.431 8.57528C137.799 8.57528 137.243 8.7626 136.772 9.0784C136.295 9.44772 135.899 9.86521 135.637 10.3683C135.321 10.8929 135.112 11.4495 134.979 12.0276C134.818 12.6324 134.743 13.1891 134.743 13.6869H134.738ZM147.787 29.5088V26.688C147.787 25.7888 147.787 24.8414 147.814 23.894V12.6378C147.787 10.8233 147.787 8.91784 147.787 6.91602H150.527V12.6378C150.527 14.4844 150.527 16.3578 150.554 18.199V29.5088H147.787Z" fill="#CCA95A"/>
<path d="M159.434 17.0364C158.695 17.0364 157.984 16.9293 157.325 16.667C156.64 16.4315 156.062 16.089 155.559 15.6661C155.034 15.2486 154.612 14.7455 154.317 14.1139C154.001 13.5091 153.841 12.824 153.841 12.08C153.841 11.336 153.996 10.683 154.317 10.0514C154.606 9.44656 155.029 8.91667 155.559 8.46707C156.062 8.02281 156.64 7.68025 157.325 7.41263C157.984 7.19853 158.695 7.07007 159.434 7.07007C160.066 7.07007 160.676 7.17713 161.281 7.38588C161.859 7.59997 162.415 7.88364 162.913 8.25831C163.416 8.62763 163.834 9.09866 164.203 9.62856C164.519 10.1852 164.781 10.79 164.942 11.4484H167.077V6.86133H169.663V17.6947H167.077V12.4225H164.969C164.68 13.8463 164.021 14.981 163.02 15.7732C161.966 16.6135 160.751 17.0364 159.434 17.0364ZM159.434 15.9819C159.937 15.9819 160.382 15.8749 160.778 15.6126C161.147 15.3771 161.436 15.0559 161.671 14.6652C161.934 14.2959 162.121 13.8463 162.223 13.3753C162.33 12.9257 162.383 12.4761 162.383 12.0532C162.383 11.6304 162.33 11.1861 162.223 10.7097C162.089 10.2601 161.907 9.8373 161.645 9.4198C161.409 9.05048 161.12 8.73469 160.751 8.46707C160.382 8.23156 159.932 8.09775 159.434 8.09775C158.91 8.09775 158.433 8.23156 158.064 8.46707C157.641 8.73469 157.352 9.04513 157.143 9.4198C156.881 9.81589 156.667 10.2387 156.565 10.683C156.431 11.1593 156.383 11.6357 156.383 12.0532C156.383 12.4707 156.437 12.9257 156.565 13.3967C156.672 13.873 156.881 14.3173 157.143 14.6866C157.357 15.0827 157.646 15.3985 158.064 15.6073C158.433 15.8695 158.91 15.9766 159.434 15.9766V15.9819ZM174.459 29.4541H160.751C160.119 29.4541 159.616 29.2667 159.22 28.9242C158.797 28.5549 158.615 28.0838 158.615 27.5004V24.3371H171.268V21.2006H158.326V20.1461H174.014V25.2042H161.361V28.421H174.464V29.4487L174.459 29.4541ZM174.271 17.6947H171.739V6.86133H174.271V17.6947Z" fill="#CCA95A"/>
<path d="M188.846 7.60113C188.819 7.70818 188.819 7.83664 188.819 7.97045V8.36653C188.819 9.42632 188.846 10.5022 188.953 11.6101C189.006 12.7181 189.188 13.7993 189.456 14.8537C189.718 15.9081 190.087 16.8876 190.564 17.7815C191.04 18.7342 191.672 19.5478 192.464 20.2329L191.302 21.555C190.987 21.3677 190.671 21.1322 190.355 20.8431C190.039 20.5755 189.723 20.2651 189.408 19.8636C189.092 19.4675 188.803 19.0233 188.535 18.4934C188.219 18.017 187.984 17.4389 187.77 16.8074C187.347 17.835 186.876 18.761 186.292 19.6013C185.688 20.4684 184.976 21.2124 184.184 21.8173C183.552 21.3677 182.894 20.6825 182.257 19.7619C181.572 18.8681 181.02 17.8136 180.571 16.5718C180.201 17.653 179.778 18.6272 179.281 19.4996C178.756 20.3989 178.039 21.1589 177.145 21.7959L175.828 20.6879C176.621 20.0028 177.279 19.1571 177.755 18.1615C178.205 17.182 178.574 16.1276 178.836 15.025C179.072 13.917 179.233 12.8091 179.34 11.6743C179.393 10.5664 179.447 9.51196 179.447 8.53781V7.61719H181.663V8.11496C181.636 8.27554 181.636 8.45753 181.636 8.69304C181.636 9.51196 181.663 10.3523 181.743 11.2515C181.796 12.1507 181.93 13.0446 182.139 13.917C182.299 14.8162 182.562 15.6833 182.931 16.4755C183.247 17.3158 183.697 18.0277 184.275 18.6111C184.853 17.926 185.302 17.1071 185.618 16.1597C185.907 15.2659 186.143 14.2864 186.33 13.2908C186.464 12.3113 186.539 11.3372 186.592 10.363C186.619 9.41562 186.646 8.52175 186.646 7.72958V7.62254H188.862L188.846 7.60113ZM192.855 6.91602H195.595V29.5088H192.855V6.91602Z" fill="#CCA95A"/>
<path d="M199.674 21.1198C201.253 20.5631 202.521 19.7228 203.495 18.5881C204.443 17.4801 205.155 16.0028 205.631 14.2151H200.279V13.1607H205.733C205.84 12.3685 205.92 11.6299 205.968 10.8912C205.968 10.1794 205.995 9.44072 205.995 8.70208H200.011V7.67439H206.525C206.894 7.67439 207.21 7.74933 207.472 7.85638C207.681 8.01695 207.868 8.19894 208.024 8.41304C208.157 8.64855 208.259 8.91082 208.339 9.20521C208.393 9.521 208.42 9.86356 208.42 10.1794C208.42 10.6771 208.393 11.1267 208.339 11.5228C208.286 11.9403 208.232 12.3632 208.184 12.7325L208.131 13.2624H211.16V6.85547H213.692V29.4482H211.16V14.2847H207.836C207.574 15.1839 207.231 16.0564 206.782 16.8699C206.305 17.7103 205.781 18.4489 205.149 19.0859C204.518 19.7442 203.806 20.2955 203.04 20.7451C202.248 21.2215 201.381 21.564 200.428 21.7193L199.663 21.1144L199.674 21.1198ZM218.552 6.86083V29.4536H216.02V6.86083H218.552Z" fill="#CCA95A"/>
<path d="M228.85 7.60113C229.744 7.60113 230.563 7.75634 231.355 8.07749C232.094 8.39329 232.779 8.84289 233.383 9.36744C233.962 9.92409 234.438 10.5557 234.807 11.2943C235.15 12.0544 235.337 12.8465 235.337 13.6922C235.337 14.5914 235.155 15.405 234.807 16.1437C234.438 16.8823 233.962 17.5407 233.383 18.0705C232.779 18.5951 232.094 19.0179 231.328 19.3391C230.536 19.6549 229.696 19.8155 228.85 19.8155C228.004 19.8155 227.191 19.6549 226.425 19.3391C225.633 19.0233 224.948 18.6004 224.37 18.0705C223.738 17.5407 223.262 16.8823 222.946 16.1437C222.577 15.405 222.416 14.5914 222.416 13.6922C222.416 12.8519 222.577 12.0597 222.946 11.2943C223.262 10.5557 223.738 9.92409 224.37 9.36744C224.948 8.84289 225.633 8.39329 226.425 8.07749C227.191 7.7617 228.01 7.60113 228.85 7.60113ZM225.184 13.6869C225.184 14.2168 225.264 14.7681 225.419 15.3515C225.553 15.9563 225.762 16.5076 226.077 17.0108C226.366 17.5085 226.762 17.9314 227.266 18.2472C227.742 18.5897 228.267 18.7503 228.898 18.7503C229.53 18.7503 230.06 18.5897 230.536 18.2204C231.012 17.9046 231.382 17.4818 231.697 16.984C231.96 16.4809 232.201 15.9242 232.356 15.3194C232.49 14.7413 232.565 14.19 232.565 13.6601C232.565 13.1838 232.484 12.6324 232.356 12.0276C232.195 11.4495 231.96 10.8929 231.671 10.3683C231.355 9.86521 230.986 9.44772 230.536 9.0784C230.06 8.7626 229.508 8.57528 228.877 8.57528C228.245 8.57528 227.688 8.7626 227.217 9.0784C226.741 9.44772 226.345 9.86521 226.083 10.3683C225.767 10.8929 225.558 11.4495 225.424 12.0276C225.264 12.6324 225.189 13.1891 225.189 13.6869H225.184ZM238.233 29.5088V26.688C238.233 25.7888 238.233 24.8414 238.26 23.894V12.6378C238.233 10.8233 238.233 8.91784 238.233 6.91602H240.973V12.6378C240.973 14.4844 240.973 16.3578 241 18.199V29.5088H238.233Z" fill="#CCA95A"/>
<path d="M0 36.3854H1.80378H2.81004H17.3473L0 18.7383V36.3854Z" fill="#CCA95A"/>
<path d="M36.3914 0H19.0708V20.896H36.3914V0Z" fill="#CCA95A"/>
<path d="M17.3206 22.6409V0H0V16.2447L17.3206 33.8704V22.6409Z" fill="#CCA95A"/>
<path d="M36.3914 22.6406H19.0708V36.3857H36.3914V22.6406Z" fill="#CCA95A"/>
</svg>
