<svg width="241" height="37" viewBox="0 0 241 37" fill="none" xmlns="http://www.w3.org/2000/svg">
<path d="M52.2239 28.4374C52.2239 28.689 52.165 28.8817 52.0526 29.0102C51.9349 29.1386 51.7743 29.2028 51.5709 29.2028C51.4478 29.2028 51.3354 29.1814 51.2337 29.1333C51.132 29.0904 51.0571 29.0262 50.9982 28.9406C50.9393 28.8549 50.9125 28.7586 50.9125 28.6515H50.5486C50.5486 28.8282 50.5914 28.9834 50.6824 29.1119C50.768 29.2457 50.8911 29.3474 51.0464 29.4223C51.2016 29.4919 51.3782 29.5294 51.5709 29.5294C51.7636 29.5294 51.9509 29.4865 52.1062 29.4062C52.2614 29.3206 52.3791 29.1975 52.4648 29.0369C52.5504 28.871 52.5932 28.673 52.5932 28.4374V25.7559H52.2239V28.4374Z" fill="white"/>
<path d="M55.4248 25.7559H55.0608V29.4812H57.1911V29.1547H55.4248V25.7559Z" fill="white"/>
<path d="M60.1082 26.2316C60.3009 26.1085 60.515 26.0496 60.7505 26.0496C60.9378 26.0496 61.1091 26.0871 61.2643 26.162C61.4195 26.2369 61.5533 26.344 61.655 26.4724C61.7567 26.6062 61.8263 26.7561 61.8638 26.9274H62.2278C62.1849 26.6919 62.0993 26.4831 61.9655 26.2958C61.8317 26.1138 61.6604 25.964 61.4516 25.8623C61.2429 25.7552 61.0074 25.707 60.7505 25.707C60.4347 25.707 60.1563 25.782 59.9101 25.9425C59.6639 26.0978 59.4712 26.3226 59.3374 26.6116C59.1983 26.9006 59.134 27.2378 59.134 27.6232C59.134 28.0086 59.2036 28.3404 59.3374 28.6348C59.4766 28.9239 59.6639 29.1487 59.9101 29.3039C60.1563 29.4591 60.4347 29.5394 60.7505 29.5394C61.0074 29.5394 61.2429 29.4859 61.4516 29.3842C61.6604 29.2771 61.8317 29.1326 61.9655 28.9506C62.0993 28.7633 62.1849 28.5545 62.2278 28.3244H61.8638C61.8317 28.4903 61.7621 28.6402 61.655 28.774C61.548 28.9078 61.4195 29.0095 61.2643 29.0844C61.1091 29.1594 60.9378 29.1968 60.7505 29.1968C60.515 29.1968 60.3009 29.138 60.1082 29.0148C59.9155 28.8917 59.7656 28.7151 59.6532 28.4796C59.5408 28.2441 59.4873 27.9604 59.4873 27.6286C59.4873 27.2967 59.5408 27.0184 59.6586 26.7775C59.771 26.542 59.9208 26.36 60.1135 26.2369L60.1082 26.2316Z" fill="white"/>
<path d="M66.6969 25.7559L64.9145 27.7309H64.877V25.7559H64.5131V29.4812H64.877V28.2769L65.3695 27.7256L66.729 29.4812H67.1732L65.5943 27.474L67.1839 25.7559H66.6969Z" fill="white"/>
<path d="M74.0406 25.9057C73.8586 25.804 73.6391 25.7559 73.3769 25.7559H72.1619V29.4812H72.5258V28.0735H73.3822C73.6445 28.0735 73.8639 28.0253 74.0459 27.9236C74.2279 27.8219 74.3671 27.6827 74.4581 27.5115C74.5491 27.3348 74.5972 27.1368 74.5972 26.9174C74.5972 26.6979 74.5491 26.4945 74.4581 26.3232C74.3671 26.1519 74.2279 26.0128 74.0459 25.9111L74.0406 25.9057ZM74.1316 27.3402C74.0673 27.4633 73.971 27.565 73.8425 27.6346C73.7141 27.7095 73.5535 27.7416 73.3608 27.7416H72.5205V26.077H73.3555C73.5481 26.077 73.7087 26.1145 73.8372 26.1841C73.971 26.2536 74.0673 26.35 74.1262 26.4731C74.1904 26.5962 74.2226 26.7407 74.2226 26.9067C74.2226 27.0726 74.1904 27.2117 74.1262 27.3348L74.1316 27.3402Z" fill="white"/>
<path d="M78.2852 26.7307C78.1353 26.6771 77.9801 26.6504 77.8088 26.6504C77.6161 26.6504 77.4449 26.6771 77.295 26.7414C77.1398 26.8003 77.0166 26.8859 76.9203 26.9929C76.824 27.1 76.7651 27.2284 76.7437 27.3783H77.1076C77.1398 27.2499 77.22 27.1482 77.3378 27.0732C77.4609 26.9983 77.6108 26.9608 77.7874 26.9608C77.9319 26.9608 78.055 26.9822 78.1567 27.0304C78.2584 27.0786 78.3334 27.1482 78.3869 27.2338C78.4404 27.3248 78.4618 27.4372 78.4618 27.5603V27.8226L78.1942 27.8333C77.9319 27.8493 77.7606 27.86 77.6804 27.8708C77.3646 27.8922 77.113 27.9671 76.9257 28.0956C76.7437 28.224 76.6473 28.422 76.6473 28.7004C76.6473 28.8717 76.6901 29.0215 76.7704 29.15C76.8507 29.2784 76.9631 29.3748 77.1023 29.4444C77.2414 29.5086 77.3967 29.5461 77.568 29.5461C77.7178 29.5461 77.8463 29.5193 77.964 29.4711C78.0818 29.423 78.1781 29.3641 78.2531 29.2892C78.328 29.2142 78.3869 29.1339 78.4297 29.0483H78.4511V29.4818H78.799V27.5924C78.799 27.3569 78.7455 27.1642 78.6438 27.0251C78.5421 26.8859 78.4136 26.7842 78.2638 26.7307H78.2852ZM78.3655 28.8288C78.2959 28.952 78.1995 29.0483 78.0764 29.1232C77.9533 29.1982 77.8088 29.2303 77.6429 29.2303C77.5251 29.2303 77.4127 29.2089 77.3164 29.1714C77.2201 29.1286 77.1451 29.0697 77.0916 28.9894C77.0381 28.9145 77.0113 28.8235 77.0113 28.7164C77.0113 28.5559 77.0702 28.4274 77.1933 28.3364C77.3164 28.2454 77.4984 28.1919 77.7392 28.1705L78.0336 28.1491C78.2798 28.1277 78.4136 28.117 78.4672 28.1116V28.4114C78.4672 28.5612 78.4351 28.695 78.3655 28.8235V28.8288Z" fill="white"/>
<path d="M81.8123 26.773C81.6731 26.8586 81.5768 26.9764 81.5233 27.1209H81.4965V26.6927H81.1593V29.4867H81.5072V27.6936C81.5072 27.5598 81.5393 27.442 81.6035 27.3296C81.6678 27.2226 81.7588 27.137 81.8712 27.0781C81.9836 27.0192 82.112 26.9871 82.2512 26.9871C82.294 26.9871 82.3315 26.9871 82.3743 26.9924C82.4171 26.9978 82.4439 27.0032 82.4599 27.0032V26.6499C82.4064 26.6499 82.3422 26.6445 82.278 26.6445C82.1067 26.6445 81.9515 26.6874 81.8123 26.773Z" fill="white"/>
<path d="M85.4091 29.1434C85.3502 29.1167 85.302 29.0685 85.2646 29.0042C85.2271 28.94 85.2111 28.849 85.2111 28.742V26.9864H85.7998V26.6866H85.2111V26.0176H84.8578V26.6866H84.4403V26.9864H84.8578V28.8169C84.8578 28.9668 84.8953 29.0899 84.9595 29.1969C85.0291 29.304 85.1201 29.3843 85.2325 29.4378C85.3449 29.4913 85.4626 29.5234 85.5857 29.5234C85.6928 29.5234 85.7784 29.5181 85.8533 29.502V29.1755C85.7731 29.1809 85.6981 29.1809 85.6232 29.1809C85.5483 29.1809 85.4733 29.1702 85.4145 29.1381L85.4091 29.1434Z" fill="white"/>
<path d="M89.7019 26.7681C89.5627 26.6879 89.3968 26.6504 89.2041 26.6504C89.0007 26.6504 88.8294 26.6932 88.6956 26.7735C88.5565 26.8591 88.4548 26.9769 88.3798 27.1268H88.3531V26.6879H88.0159V29.4818H88.3638V27.7423C88.3638 27.5871 88.3959 27.4425 88.4601 27.3301C88.5243 27.2124 88.61 27.1214 88.7277 27.0572C88.8401 26.9983 88.9686 26.9662 89.1131 26.9662C89.2576 26.9662 89.3807 26.993 89.4824 27.0572C89.5841 27.1161 89.6644 27.2017 89.7233 27.3087C89.7768 27.4158 89.8089 27.5496 89.8089 27.6941V29.4765H90.1569V27.6727C90.1569 27.4533 90.1194 27.2659 90.0391 27.1107C89.9588 26.9555 89.8518 26.8377 89.7072 26.7628L89.7019 26.7681Z" fill="white"/>
<path d="M94.1659 26.8003C93.9839 26.6986 93.7912 26.6504 93.5771 26.6504C93.3363 26.6504 93.1222 26.7093 92.9348 26.8324C92.7475 26.9555 92.603 27.1321 92.4959 27.3516C92.3942 27.571 92.3407 27.8226 92.3407 28.1009C92.3407 28.3792 92.3942 28.6308 92.4959 28.8502C92.603 29.0697 92.7475 29.2356 92.9455 29.3587C93.1382 29.4818 93.363 29.5407 93.6199 29.5407C93.8073 29.5407 93.9732 29.514 94.1231 29.4497C94.2729 29.3909 94.396 29.3052 94.4977 29.2035C94.5994 29.0965 94.669 28.9841 94.7119 28.8502H94.3372C94.3051 28.9198 94.2515 28.9787 94.1873 29.0322C94.1231 29.0858 94.0428 29.1339 93.9464 29.1714C93.8501 29.2089 93.7431 29.2249 93.6199 29.2249C93.4326 29.2249 93.272 29.1821 93.1275 29.0911C92.9883 29.0055 92.8813 28.877 92.801 28.7164C92.7314 28.5666 92.6993 28.3899 92.694 28.1919H94.7547V28.026C94.7547 27.7262 94.7011 27.4693 94.5887 27.2606C94.4817 27.0518 94.3372 26.8966 94.1552 26.7949L94.1659 26.8003ZM92.71 27.8868C92.7207 27.7369 92.7421 27.5924 92.8064 27.464C92.8813 27.3087 92.983 27.191 93.1222 27.1C93.256 27.009 93.4059 26.9608 93.5771 26.9608C93.7377 26.9608 93.8822 27.0037 94.0107 27.0839C94.1391 27.1642 94.2355 27.2766 94.3051 27.4158C94.3746 27.555 94.4121 27.7155 94.4121 27.8922H92.71V27.8868Z" fill="white"/>
<path d="M97.6183 26.773C97.4792 26.8586 97.3828 26.9764 97.3293 27.1209H97.3025V26.6927H96.9653V29.4867H97.3132V27.6936C97.3132 27.5598 97.3453 27.442 97.4096 27.3296C97.4738 27.2226 97.5648 27.137 97.6772 27.0781C97.7896 27.0192 97.9181 26.9871 98.0572 26.9871C98.1001 26.9871 98.1375 26.9871 98.1803 26.9924C98.2232 26.9978 98.2499 27.0032 98.266 27.0032V26.6499C98.2125 26.6499 98.1482 26.6445 98.084 26.6445C97.9127 26.6445 97.7575 26.6874 97.6183 26.773Z" fill="white"/>
<path d="M102.066 28.2508C101.948 28.1277 101.772 28.0367 101.531 27.9831L101.108 27.8761C100.937 27.8333 100.814 27.7744 100.728 27.6995C100.642 27.6245 100.605 27.5336 100.605 27.4265C100.605 27.3355 100.632 27.2552 100.685 27.1803C100.739 27.1053 100.814 27.0518 100.91 27.009C101.006 26.9662 101.113 26.9501 101.237 26.9501C101.402 26.9501 101.542 26.9876 101.643 27.0625C101.745 27.1375 101.815 27.2445 101.847 27.3783H102.195C102.173 27.2338 102.125 27.1053 102.039 26.9983C101.954 26.8912 101.847 26.8003 101.708 26.7414C101.568 26.6825 101.413 26.6504 101.231 26.6504C101.039 26.6504 100.867 26.6825 100.717 26.7521C100.568 26.8217 100.455 26.918 100.369 27.0358C100.284 27.1589 100.241 27.2927 100.241 27.4479C100.241 27.6352 100.305 27.7851 100.423 27.9136C100.546 28.042 100.723 28.133 100.958 28.1865L101.386 28.2882C101.547 28.3257 101.67 28.3792 101.75 28.4595C101.831 28.5345 101.868 28.6308 101.868 28.7432C101.868 28.8449 101.841 28.9305 101.783 29.0055C101.724 29.0804 101.643 29.1393 101.536 29.1768C101.429 29.2142 101.306 29.2356 101.167 29.2356C100.98 29.2356 100.83 29.1982 100.723 29.1179C100.61 29.0376 100.541 28.9252 100.514 28.7753H100.145C100.166 28.9412 100.225 29.0751 100.311 29.1928C100.396 29.3106 100.514 29.3962 100.658 29.4551C100.803 29.514 100.974 29.5407 101.172 29.5407C101.392 29.5407 101.579 29.5086 101.734 29.439C101.89 29.3694 102.013 29.2731 102.098 29.15C102.184 29.0269 102.221 28.8824 102.221 28.7271C102.221 28.5398 102.163 28.3792 102.045 28.2615L102.066 28.2508Z" fill="white"/>
<path d="M58.1711 7.01172H59.8678V13.8522H58.1711V10.5336H55.7625V13.4775H50.2494C49.864 13.4775 49.5376 13.3597 49.2967 13.1403C49.0398 12.9262 48.9274 12.6372 48.9274 12.2518V7.29004H50.6241V9.47386H54.0711V7.29004H55.7678V9.89135H58.1764V7.01172H58.1711ZM54.0657 12.8191V10.1161H50.6187V12.8191H54.0657ZM52.3048 20.8746C51.914 20.8746 51.609 20.7622 51.3681 20.5374C51.1112 20.3126 50.9827 20.0182 50.9827 19.6649V15.5221H52.6795V17.251H57.9195V15.5221H59.6002C59.6002 16.4588 59.6002 17.3527 59.6162 18.193V20.88H52.3048V20.8746ZM57.9142 20.2109V17.8986H52.6741V20.2109H57.9142Z" fill="white"/>
<path d="M62.3352 16.099V15.4674H75.1918V16.099H69.545V20.8413H67.8643V16.099H62.3352ZM73.5914 7.36914V13.107H65.2951C64.9258 13.107 64.6154 13.0106 64.3745 12.7858C64.1176 12.5931 63.9891 12.3041 63.9891 11.9134V7.36914H73.5968H73.5914ZM71.8894 12.4807V8.01678H65.6805V12.4807H71.8894Z" fill="white"/>
<path d="M86.9033 7.01172H88.6V13.8522H86.9033V10.5336H84.4947V13.4775H78.9816C78.5962 13.4775 78.2697 13.3597 78.0289 13.1403C77.7719 12.9262 77.6595 12.6372 77.6595 12.2518V7.29004H79.3563V9.47386H82.8033V7.29004H84.5V9.89135H86.9086V7.01172H86.9033ZM82.7979 12.8191V10.1161H79.3509V12.8191H82.7979ZM81.0316 20.8746C80.6409 20.8746 80.3358 20.7622 80.0949 20.5374C79.838 20.3126 79.7095 20.0182 79.7095 19.6649V15.5221H81.4063V17.251H86.6463V15.5221H88.327C88.327 16.4588 88.327 17.3527 88.3431 18.193V20.88H81.0316V20.8746ZM86.6463 20.2109V17.8986H81.4063V20.2109H86.6463Z" fill="white"/>
<path d="M95.269 7.10806C95.7561 7.10806 96.2217 7.20441 96.6927 7.36498C97.1477 7.55767 97.5331 7.79852 97.8917 8.10897C98.2289 8.43011 98.5072 8.8048 98.716 9.22229C98.9087 9.65584 99.005 10.1269 99.005 10.646C99.005 11.1652 98.9087 11.6148 98.716 12.0216C98.5072 12.4445 98.2289 12.8138 97.8917 13.1189C97.5384 13.44 97.1477 13.6862 96.6927 13.8522C96.2217 14.0288 95.7561 14.1091 95.269 14.1091C94.7819 14.1091 94.3002 14.0288 93.8452 13.8522C93.3903 13.6862 92.9888 13.4454 92.6463 13.1189C92.277 12.8138 91.9826 12.4445 91.7899 12.0216C91.5651 11.6202 91.4688 11.1652 91.4688 10.646C91.4688 10.1643 91.5651 9.6933 91.7899 9.23835C91.9826 8.82085 92.277 8.43011 92.6463 8.10897C92.9835 7.80388 93.3903 7.55767 93.8452 7.36498C94.3002 7.19906 94.7659 7.10806 95.269 7.10806ZM95.269 7.73965C94.8997 7.73965 94.5892 7.836 94.3323 8.03404C94.0593 8.22673 93.8452 8.46758 93.6847 8.76197C93.508 9.051 93.3796 9.36144 93.2939 9.69865C93.1976 10.0519 93.1655 10.357 93.1655 10.6514C93.1655 10.9458 93.1976 11.2509 93.2939 11.572C93.3742 11.9092 93.5027 12.2197 93.6847 12.5087C93.8452 12.7817 94.054 13.0065 94.3323 13.2045C94.5946 13.3972 94.8997 13.4989 95.269 13.4989C95.6383 13.4989 95.9327 13.3972 96.1896 13.1938C96.4465 12.9958 96.6606 12.771 96.8373 12.498C96.9978 12.209 97.1263 11.8985 97.2226 11.5613C97.3029 11.2402 97.3511 10.9458 97.3511 10.6567C97.3511 10.3677 97.3029 10.0466 97.2387 9.68795C97.1424 9.3668 97.0139 9.06171 96.8533 8.76733C96.6767 8.47829 96.4626 8.23209 96.2057 8.0394C95.9487 7.84136 95.6222 7.745 95.269 7.745V7.73965ZM95.7025 16.2126V20.2109H103.207V20.8746H95.3279C94.9425 20.8746 94.6321 20.7622 94.3912 20.5374C94.1343 20.3126 94.0058 20.0182 94.0058 19.6649V16.218H95.7025V16.2126ZM102.982 7.01172V17.1653H101.301V7.01172H102.982Z" fill="white"/>
<path d="M118.926 7.68084V8.70852H115.474C115.474 9.78972 115.501 10.9244 115.581 12.0806C115.635 13.2688 115.817 14.3982 116.133 15.5115C116.422 16.6195 116.871 17.6204 117.503 18.5196C118.081 19.4402 118.926 20.1521 120.034 20.682C119.826 20.8426 119.665 20.9496 119.585 21.0513C119.478 21.1583 119.349 21.2654 119.162 21.3671C118.611 21.2868 118.081 21.0513 117.578 20.6552C117.053 20.2859 116.577 19.8149 116.154 19.285C115.704 18.7604 115.308 18.177 114.966 17.5454C114.596 16.9138 114.307 16.2822 114.147 15.6239C113.965 16.2822 113.697 16.9138 113.381 17.5454C113.012 18.1824 112.616 18.7604 112.166 19.285C111.717 19.8149 111.246 20.2859 110.716 20.6552C110.165 21.0513 109.635 21.2868 109.105 21.3671L108.259 20.682C109.313 20.2056 110.132 19.5205 110.764 18.5731C111.342 17.6739 111.792 16.6516 112.107 15.4901C112.37 14.3821 112.557 13.2206 112.659 12.011C112.739 10.8495 112.793 9.74154 112.793 8.71386H109.287V7.6862H118.91L118.926 7.68084ZM117.952 13.7934V12.7657H121.223V6.88867H123.728V12.5837C123.728 14.4571 123.728 16.3251 123.754 18.1717V29.4814H121.223V13.7934H117.952ZM128.523 6.88867V29.4814H126.019L125.992 6.88867H128.523Z" fill="white"/>
<path d="M138.404 7.60113C139.298 7.60113 140.117 7.75634 140.909 8.07749C141.648 8.39329 142.333 8.84289 142.938 9.36744C143.516 9.92409 143.992 10.5557 144.361 11.2943C144.704 12.0544 144.886 12.8465 144.886 13.6922C144.886 14.5914 144.704 15.405 144.361 16.1437C143.992 16.8823 143.516 17.5407 142.938 18.0705C142.333 18.5951 141.648 19.0179 140.882 19.3391C140.09 19.6549 139.25 19.8155 138.404 19.8155C137.558 19.8155 136.745 19.6549 135.979 19.3391C135.187 19.0233 134.502 18.6004 133.924 18.0705C133.292 17.5407 132.816 16.8823 132.5 16.1437C132.131 15.405 131.97 14.5914 131.97 13.6922C131.97 12.8519 132.131 12.0597 132.5 11.2943C132.816 10.5557 133.292 9.92409 133.924 9.36744C134.502 8.84289 135.193 8.39329 135.979 8.07749C136.745 7.7617 137.564 7.60113 138.404 7.60113ZM134.738 13.6869C134.738 14.2168 134.818 14.7681 134.973 15.3515C135.107 15.9563 135.316 16.5076 135.631 17.0108C135.92 17.5085 136.317 17.9314 136.82 18.2472C137.296 18.5897 137.821 18.7503 138.452 18.7503C139.084 18.7503 139.614 18.5897 140.09 18.2204C140.566 17.9046 140.936 17.4818 141.252 16.984C141.514 16.4809 141.755 15.9242 141.91 15.3194C142.044 14.7413 142.119 14.19 142.119 13.6601C142.119 13.1838 142.038 12.6324 141.91 12.0276C141.755 11.4495 141.514 10.8929 141.225 10.3683C140.909 9.86521 140.54 9.44772 140.09 9.0784C139.614 8.7626 139.062 8.57528 138.431 8.57528C137.799 8.57528 137.243 8.7626 136.771 9.0784C136.295 9.44772 135.899 9.86521 135.637 10.3683C135.321 10.8929 135.112 11.4495 134.978 12.0276C134.818 12.6324 134.743 13.1891 134.743 13.6869H134.738ZM147.787 29.5088V26.688C147.787 25.7888 147.787 24.8414 147.814 23.894V12.6378C147.787 10.8233 147.787 8.91784 147.787 6.91602H150.527V12.6378C150.527 14.4844 150.527 16.3578 150.554 18.199V29.5088H147.787Z" fill="white"/>
<path d="M159.434 17.0364C158.695 17.0364 157.983 16.9293 157.325 16.667C156.64 16.4315 156.062 16.089 155.559 15.6661C155.034 15.2486 154.611 14.7455 154.317 14.1139C154.001 13.5091 153.841 12.824 153.841 12.08C153.841 11.336 153.996 10.683 154.317 10.0514C154.606 9.44656 155.029 8.91667 155.559 8.46707C156.062 8.02281 156.64 7.68025 157.325 7.41263C157.983 7.19853 158.695 7.07007 159.434 7.07007C160.066 7.07007 160.676 7.17713 161.281 7.38588C161.859 7.59997 162.415 7.88364 162.913 8.25831C163.416 8.62763 163.834 9.09866 164.203 9.62856C164.519 10.1852 164.781 10.79 164.942 11.4484H167.077V6.86133H169.663V17.6947H167.077V12.4225H164.968C164.679 13.8463 164.021 14.981 163.02 15.7732C161.966 16.6135 160.751 17.0364 159.434 17.0364ZM159.434 15.9819C159.937 15.9819 160.381 15.8749 160.777 15.6126C161.147 15.3771 161.436 15.0559 161.671 14.6652C161.934 14.2959 162.121 13.8463 162.223 13.3753C162.33 12.9257 162.383 12.4761 162.383 12.0532C162.383 11.6304 162.33 11.1861 162.223 10.7097C162.089 10.2601 161.907 9.8373 161.645 9.4198C161.409 9.05048 161.12 8.73469 160.751 8.46707C160.381 8.23156 159.932 8.09775 159.434 8.09775C158.909 8.09775 158.433 8.23156 158.064 8.46707C157.641 8.73469 157.352 9.04513 157.143 9.4198C156.881 9.81589 156.667 10.2387 156.565 10.683C156.431 11.1593 156.383 11.6357 156.383 12.0532C156.383 12.4707 156.437 12.9257 156.565 13.3967C156.672 13.873 156.881 14.3173 157.143 14.6866C157.357 15.0827 157.646 15.3985 158.064 15.6073C158.433 15.8695 158.909 15.9766 159.434 15.9766V15.9819ZM174.458 29.4541H160.751C160.119 29.4541 159.616 29.2667 159.22 28.9242C158.797 28.5549 158.615 28.0838 158.615 27.5004V24.3371H171.268V21.2006H158.326V20.1461H174.014V25.2042H161.361V28.421H174.464V29.4487L174.458 29.4541ZM174.271 17.6947H171.739V6.86133H174.271V17.6947Z" fill="white"/>
<path d="M188.846 7.60113C188.819 7.70818 188.819 7.83664 188.819 7.97045V8.36653C188.819 9.42632 188.846 10.5022 188.953 11.6101C189.006 12.7181 189.188 13.7993 189.456 14.8537C189.718 15.9081 190.087 16.8876 190.564 17.7815C191.04 18.7342 191.672 19.5478 192.464 20.2329L191.302 21.555C190.987 21.3677 190.671 21.1322 190.355 20.8431C190.039 20.5755 189.723 20.2651 189.408 19.8636C189.092 19.4675 188.803 19.0233 188.535 18.4934C188.219 18.017 187.984 17.4389 187.77 16.8074C187.347 17.835 186.876 18.761 186.292 19.6013C185.688 20.4684 184.976 21.2124 184.184 21.8173C183.552 21.3677 182.894 20.6825 182.257 19.7619C181.572 18.8681 181.02 17.8136 180.571 16.5718C180.201 17.653 179.778 18.6272 179.281 19.4996C178.756 20.3989 178.039 21.1589 177.145 21.7959L175.828 20.6879C176.621 20.0028 177.279 19.1571 177.755 18.1615C178.205 17.182 178.574 16.1276 178.836 15.025C179.072 13.917 179.233 12.8091 179.34 11.6743C179.393 10.5664 179.447 9.51196 179.447 8.53781V7.61719H181.663V8.11496C181.636 8.27554 181.636 8.45753 181.636 8.69304C181.636 9.51196 181.663 10.3523 181.743 11.2515C181.796 12.1507 181.93 13.0446 182.139 13.917C182.299 14.8162 182.562 15.6833 182.931 16.4755C183.247 17.3158 183.697 18.0277 184.275 18.6111C184.853 17.926 185.302 17.1071 185.618 16.1597C185.907 15.2659 186.143 14.2864 186.33 13.2908C186.464 12.3113 186.539 11.3372 186.592 10.363C186.619 9.41562 186.646 8.52175 186.646 7.72958V7.62254H188.862L188.846 7.60113ZM192.855 6.91602H195.595V29.5088H192.855V6.91602Z" fill="white"/>
<path d="M199.674 21.1198C201.253 20.5631 202.521 19.7228 203.495 18.5881C204.443 17.4801 205.155 16.0028 205.631 14.2151H200.279V13.1607H205.733C205.84 12.3685 205.92 11.6299 205.968 10.8912C205.968 10.1794 205.995 9.44072 205.995 8.70208H200.011V7.67439H206.525C206.894 7.67439 207.21 7.74933 207.472 7.85638C207.681 8.01695 207.868 8.19894 208.024 8.41304C208.157 8.64855 208.259 8.91082 208.339 9.20521C208.393 9.521 208.42 9.86356 208.42 10.1794C208.42 10.6771 208.393 11.1267 208.339 11.5228C208.286 11.9403 208.232 12.3632 208.184 12.7325L208.131 13.2624H211.16V6.85547H213.692V29.4482H211.16V14.2847H207.836C207.574 15.1839 207.231 16.0564 206.782 16.8699C206.305 17.7103 205.781 18.4489 205.149 19.0859C204.518 19.7442 203.806 20.2955 203.04 20.7451C202.248 21.2215 201.381 21.564 200.428 21.7193L199.663 21.1144L199.674 21.1198ZM218.552 6.86083V29.4536H216.02V6.86083H218.552Z" fill="white"/>
<path d="M228.85 7.60113C229.744 7.60113 230.563 7.75634 231.355 8.07749C232.094 8.39329 232.779 8.84289 233.383 9.36744C233.962 9.92409 234.438 10.5557 234.807 11.2943C235.15 12.0544 235.337 12.8465 235.337 13.6922C235.337 14.5914 235.155 15.405 234.807 16.1437C234.438 16.8823 233.962 17.5407 233.383 18.0705C232.779 18.5951 232.094 19.0179 231.328 19.3391C230.536 19.6549 229.696 19.8155 228.85 19.8155C228.004 19.8155 227.191 19.6549 226.425 19.3391C225.633 19.0233 224.948 18.6004 224.37 18.0705C223.738 17.5407 223.262 16.8823 222.946 16.1437C222.577 15.405 222.416 14.5914 222.416 13.6922C222.416 12.8519 222.577 12.0597 222.946 11.2943C223.262 10.5557 223.738 9.92409 224.37 9.36744C224.948 8.84289 225.633 8.39329 226.425 8.07749C227.191 7.7617 228.01 7.60113 228.85 7.60113ZM225.184 13.6869C225.184 14.2168 225.264 14.7681 225.419 15.3515C225.553 15.9563 225.762 16.5076 226.077 17.0108C226.366 17.5085 226.762 17.9314 227.266 18.2472C227.742 18.5897 228.267 18.7503 228.898 18.7503C229.53 18.7503 230.06 18.5897 230.536 18.2204C231.012 17.9046 231.382 17.4818 231.697 16.984C231.96 16.4809 232.201 15.9242 232.356 15.3194C232.49 14.7413 232.565 14.19 232.565 13.6601C232.565 13.1838 232.484 12.6324 232.356 12.0276C232.195 11.4495 231.96 10.8929 231.671 10.3683C231.355 9.86521 230.986 9.44772 230.536 9.0784C230.06 8.7626 229.508 8.57528 228.877 8.57528C228.245 8.57528 227.688 8.7626 227.217 9.0784C226.741 9.44772 226.345 9.86521 226.083 10.3683C225.767 10.8929 225.558 11.4495 225.424 12.0276C225.264 12.6324 225.189 13.1891 225.189 13.6869H225.184ZM238.233 29.5088V26.688C238.233 25.7888 238.233 24.8414 238.26 23.894V12.6378C238.233 10.8233 238.233 8.91784 238.233 6.91602H240.973V12.6378C240.973 14.4844 240.973 16.3578 241 18.199V29.5088H238.233Z" fill="white"/>
<path d="M0 36.3854H1.80378H2.81004H17.3473L0 18.7383V36.3854Z" fill="white"/>
<path d="M36.3914 0H19.0708V20.896H36.3914V0Z" fill="white"/>
<path d="M17.3206 22.6409V0H0V16.2447L17.3206 33.8704V22.6409Z" fill="white"/>
<path d="M36.3914 22.6406H19.0708V36.3857H36.3914V22.6406Z" fill="white"/>
</svg>
